<?xml version="1.0" encoding="UTF-8" standalone="no"?>
<svg
   viewBox="0 0 512 512"
   version="1.1"
   id="svg1"
   sodipodi:docname="refresh.svg"
   inkscape:version="1.3.2 (091e20e, 2023-11-25, custom)"
   width="100%"
   height="100%"
   inkscape:export-filename="refresh-2000.png"
   inkscape:export-xdpi="375"
   inkscape:export-ydpi="375"
   xmlns:inkscape="http://www.inkscape.org/namespaces/inkscape"
   xmlns:sodipodi="http://sodipodi.sourceforge.net/DTD/sodipodi-0.dtd"
   xmlns="http://www.w3.org/2000/svg"
   xmlns:svg="http://www.w3.org/2000/svg">
  <defs
     id="defs1">
    <inkscape:path-effect
       effect="fillet_chamfer"
       id="path-effect8"
       is_visible="true"
       lpeversion="1"
       nodesatellites_param="F,0,0,1,0,10,0,1 @ F,0,0,1,0,10,0,1 @ F,0,0,1,0,10,0,1 @ F,0,0,1,0,10,0,1 @ F,0,0,1,0,10,0,1 @ F,0,0,1,0,10,0,1 @ F,0,0,1,0,10,0,1 @ F,0,0,1,0,10,0,1 | F,0,0,1,0,10,0,1 @ F,0,0,1,0,10,0,1 @ F,0,0,1,0,10,0,1 @ F,0,0,1,0,10,0,1 @ F,0,0,1,0,10,0,1 @ F,0,0,1,0,10,0,1 @ F,0,0,1,0,10,0,1 @ F,0,0,1,0,10,0,1"
       radius="10"
       unit="px"
       method="auto"
       mode="F"
       chamfer_steps="1"
       flexible="false"
       use_knot_distance="true"
       apply_no_radius="true"
       apply_with_radius="true"
       only_selected="false"
       hide_knots="false" />
    <inkscape:path-effect
       effect="fillet_chamfer"
       id="path-effect7"
       is_visible="true"
       lpeversion="1"
       nodesatellites_param="F,0,0,1,0,10,0,1 @ F,0,0,1,0,10,0,1 @ F,0,0,1,0,10,0,1"
       radius="10"
       unit="px"
       method="auto"
       mode="F"
       chamfer_steps="1"
       flexible="false"
       use_knot_distance="true"
       apply_no_radius="true"
       apply_with_radius="true"
       only_selected="false"
       hide_knots="false" />
    <inkscape:path-effect
       effect="fillet_chamfer"
       id="path-effect6"
       is_visible="true"
       lpeversion="1"
       nodesatellites_param="F,0,0,1,0,10,0,1 @ F,0,0,1,0,10,0,1 @ F,0,0,1,0,10,0,1"
       radius="10"
       unit="px"
       method="auto"
       mode="F"
       chamfer_steps="1"
       flexible="false"
       use_knot_distance="true"
       apply_no_radius="true"
       apply_with_radius="true"
       only_selected="false"
       hide_knots="false" />
    <inkscape:path-effect
       effect="fillet_chamfer"
       id="path-effect4"
       is_visible="true"
       lpeversion="1"
       nodesatellites_param="F,0,0,1,0,0,0,1 @ F,0,0,1,0,0,0,1 @ F,0,0,1,0,0,0,1 @ F,0,0,1,0,0,0,1 @ F,0,0,1,0,0,0,1 @ F,0,0,1,0,0,0,1 @ F,0,0,1,0,0,0,1 @ F,0,0,1,0,0,0,1"
       radius="0"
       unit="px"
       method="auto"
       mode="F"
       chamfer_steps="1"
       flexible="false"
       use_knot_distance="true"
       apply_no_radius="true"
       apply_with_radius="true"
       only_selected="false"
       hide_knots="false" />
    <inkscape:path-effect
       effect="fillet_chamfer"
       id="path-effect1"
       is_visible="true"
       lpeversion="1"
       nodesatellites_param="F,0,0,1,0,0,0,1 @ F,0,0,1,0,0,0,1 @ F,0,0,1,0,0,0,1 @ F,0,0,1,0,0,0,1 @ F,0,0,1,0,0,0,1 @ F,0,0,1,0,0,0,1 @ F,0,0,1,0,0,0,1 @ F,0,0,1,0,0,0,1"
       radius="0"
       unit="px"
       method="auto"
       mode="F"
       chamfer_steps="1"
       flexible="false"
       use_knot_distance="true"
       apply_no_radius="true"
       apply_with_radius="true"
       only_selected="false"
       hide_knots="false" />
    <inkscape:path-effect
       effect="fillet_chamfer"
       id="path-effect2"
       is_visible="true"
       lpeversion="1"
       nodesatellites_param="F,0,0,1,0,11.749825,0,1 @ F,0,1,1,0,0,0,1 @ F,0,0,1,0,0,0,1 @ F,0,0,1,0,0,0,1 @ F,0,0,1,0,0,0,1 @ F,0,0,1,0,0,0,1 @ F,0,0,1,0,0,0,1 @ F,0,0,1,0,0,0,1 @ F,0,0,1,0,0,0,1 @ F,0,0,1,0,15.756173,0,1"
       radius="0"
       unit="px"
       method="auto"
       mode="F"
       chamfer_steps="1"
       flexible="false"
       use_knot_distance="true"
       apply_no_radius="true"
       apply_with_radius="true"
       only_selected="true"
       hide_knots="false" />
  </defs>
  <sodipodi:namedview
     id="namedview1"
     pagecolor="#ffffff"
     bordercolor="#000000"
     borderopacity="0.25"
     inkscape:showpageshadow="2"
     inkscape:pageopacity="0.0"
     inkscape:pagecheckerboard="0"
     inkscape:deskcolor="#d1d1d1"
     inkscape:zoom="1.4492561"
     inkscape:cx="198.37764"
     inkscape:cy="238.39817"
     inkscape:window-width="1920"
     inkscape:window-height="1009"
     inkscape:window-x="1912"
     inkscape:window-y="1"
     inkscape:window-maximized="1"
     inkscape:current-layer="svg1" />
  <!--!Font Awesome Free 6.5.1 by @fontawesome - https://fontawesome.com License - https://fontawesome.com/license/free Copyright 2024 Fonticons, Inc.-->
  <path
     style="fill:#000000;fill-opacity:1"
     id="rect1"
     width="405.73859"
     height="512"
     x="53.130707"
     y="0"
     inkscape:path-effect="#path-effect1"
     sodipodi:type="rect"
     d="M 78.661045,0 H 433.33895 c 14.14381,0 25.53034,11.386531 25.53034,25.530338 V 486.46966 C 458.86929,500.61347 447.48276,512 433.33895,512 H 78.661045 C 64.517238,512 53.130707,500.61347 53.130707,486.46966 V 25.530338 C 53.130707,11.386531 64.517238,0 78.661045,0 Z"
     ry="25.530338" />
  <path
     style="fill:#f9f9f9;fill-opacity:1"
     id="path1"
     width="405.73859"
     height="512"
     x="53.130707"
     y="0"
     inkscape:path-effect="#path-effect4"
     sodipodi:type="rect"
     d="M 69.286629,0 H 442.71337 c 8.95038,0 16.15592,7.2055412 16.15592,16.155922 V 495.84408 c 0,8.95038 -7.20554,16.15592 -16.15592,16.15592 H 69.286629 c -8.950381,0 -16.155922,-7.20554 -16.155922,-16.15592 V 16.155922 C 53.130707,7.2055412 60.336248,0 69.286629,0 Z"
     ry="16.155922"
     transform="matrix(0.84014125,0,0,0.88326682,40.92384,29.883693)" />
  <path
     id="path4"
     style="fill:#000000;fill-opacity:1;stroke-width:1.35693"
     d="m 246.00717,106.32757 c -74.88082,4.92512 -134.75448,64.79878 -139.6796,139.6796 -0.3624,5.50994 -0.33917,14.47598 0.057,19.98358 1.35121,18.78553 6.22879,37.15031 14.3768,54.13065 2.38886,4.97834 7.75181,5.6621 11.61086,1.71122 l 11.79855,-12.0793 c 3.85905,-3.95088 5.11757,-11.23299 3.31462,-16.45141 -3.05187,-8.83325 -5.01385,-18.00647 -5.84223,-27.31528 -0.48938,-5.49937 -0.49732,-14.47361 -0.0232,-19.97436 4.77792,-55.43858 48.95378,-99.61444 104.39236,-104.39236 5.50075,-0.47408 14.47492,-0.47299 19.97504,0.008 8.42739,0.73698 16.74777,2.40319 24.80909,4.96818 5.2612,1.67403 12.51369,0.24022 16.37284,-3.71059 l 12.00918,-12.29442 c 3.85915,-3.95081 3.04193,-9.28207 -1.99927,-11.53525 -16.17648,-7.23011 -33.50748,-11.53717 -51.18662,-12.72078 -5.50949,-0.36886 -14.47542,-0.36987 -19.98536,-0.007 z m 133.86266,83.59162 -12.00724,12.29247 c -3.85914,3.95081 -5.12063,11.23418 -3.3214,16.45388 3.04863,8.84431 5.00493,18.02845 5.82522,27.3474 0.48412,5.49984 0.48776,14.47404 0.0137,19.97479 -4.77792,55.43858 -48.95378,99.61444 -104.39236,104.39236 -5.50075,0.47408 -14.47508,0.45191 -19.97287,-0.0549 -8.38329,-0.77283 -16.65638,-2.46547 -24.66955,-5.04729 -5.25507,-1.69316 -12.50107,-0.27431 -16.36018,3.67653 l -11.9058,12.18884 c -3.85911,3.95084 -3.04998,9.29711 1.98263,11.56943 16.0904,7.26512 33.33844,11.6329 50.94734,12.90159 5.50754,0.3968 14.47359,0.42056 19.98353,0.0582 74.88082,-4.92512 134.75448,-64.79878 139.6796,-139.6796 0.3624,-5.50994 0.35956,-14.47589 -0.0115,-19.98523 -1.26994,-18.85324 -6.09132,-37.29855 -14.20951,-54.36175 -2.37231,-4.98625 -7.72241,-5.67747 -11.58155,-1.72666 z"
     inkscape:path-effect="#path-effect8"
     inkscape:original-d="M 256 106 A 150 150 0 0 0 106 256 A 150 150 0 0 0 125.38477 328.98633 L 151.1582 302.59961 A 114.80953 114.80953 0 0 1 141.19141 256 A 114.80953 114.80953 0 0 1 256 141.19141 A 114.80953 114.80953 0 0 1 300.18164 150.03906 L 326.16602 123.4375 A 150 150 0 0 0 256 106 z M 386.85742 182.76562 L 360.875 209.36523 A 114.80953 114.80953 0 0 1 370.80859 256 A 114.80953 114.80953 0 0 1 256 370.80859 A 114.80953 114.80953 0 0 1 211.97266 361.80078 L 186.0918 388.29688 A 150 150 0 0 0 256 406 A 150 150 0 0 0 406 256 A 150 150 0 0 0 386.85742 182.76562 z " />
  <path
     sodipodi:type="star"
     style="fill:#000000;fill-opacity:1"
     id="path5"
     inkscape:flatsided="true"
     sodipodi:sides="3"
     sodipodi:cx="217.35289"
     sodipodi:cy="202.17268"
     sodipodi:r1="64.066895"
     sodipodi:r2="32.033447"
     sodipodi:arg1="0.71680366"
     sodipodi:arg2="1.7640012"
     inkscape:rounded="0"
     inkscape:randomized="0"
     d="m 255.83959,242.34319 -89.27457,-17.46615 a 5.7735027,5.7735027 71.069824 0 1 -3.24416,-9.45915 l 59.76342,-68.58097 a 5.7735027,5.7735027 11.069824 0 1 9.81394,1.92005 l 29.51115,86.04713 a 5.7735027,5.7735027 131.06982 0 1 -6.56978,7.53909 z"
     inkscape:transform-center-x="3.1719973"
     inkscape:transform-center-y="-13.190977"
     transform="rotate(-5.3870041,-439.44601,-676.82598)"
     inkscape:path-effect="#path-effect6" />
  <path
     sodipodi:type="star"
     style="fill:#000000;fill-opacity:1"
     id="path6"
     inkscape:flatsided="true"
     sodipodi:sides="3"
     sodipodi:cx="217.35289"
     sodipodi:cy="202.17268"
     sodipodi:r1="64.066895"
     sodipodi:r2="32.033447"
     sodipodi:arg1="0.71680366"
     sodipodi:arg2="1.7640012"
     inkscape:rounded="0"
     inkscape:randomized="0"
     d="m 255.83959,242.34319 -89.27457,-17.46615 a 5.7735027,5.7735027 71.069824 0 1 -3.24416,-9.45915 l 59.76342,-68.58097 a 5.7735027,5.7735027 11.069824 0 1 9.81394,1.92005 l 29.51115,86.04713 a 5.7735027,5.7735027 131.06982 0 1 -6.56978,7.53909 z"
     inkscape:transform-center-x="-3.1719994"
     inkscape:transform-center-y="13.190981"
     transform="rotate(174.613,212.25023,288.59061)"
     inkscape:path-effect="#path-effect7" />
</svg>
